<svg width="99" height="39" viewBox="0 0 99 39" fill="none" xmlns="http://www.w3.org/2000/svg">
<g clip-path="url(#clip0_3060_305)">
<path d="M1.65172 29.9501C1.5835 29.8616 1.49112 29.7959 1.38633 29.7614C1.28155 29.7269 1.1691 29.725 1.06329 29.7561C0.957487 29.7872 0.863113 29.8499 0.792183 29.9361C0.721252 30.0223 0.676971 30.1282 0.664977 30.2402C0.657378 30.3014 0.650865 30.3725 0.643266 30.4526C0.634083 30.5272 0.639778 30.6029 0.660008 30.6752C0.680238 30.7475 0.714581 30.8148 0.760958 30.8731C0.807336 30.9314 0.864784 30.9795 0.929824 31.0144C0.994865 31.0493 1.06615 31.0703 1.13935 31.0762C1.21212 31.0854 1.28597 31.0795 1.35643 31.0587C1.42689 31.0379 1.49251 31.0027 1.54932 30.9552C1.60613 30.9078 1.65296 30.849 1.68698 30.7825C1.721 30.7159 1.7415 30.643 1.74725 30.5682C1.75485 30.4915 1.76136 30.4259 1.76896 30.3714C1.78597 30.2206 1.7438 30.0691 1.65172 29.9501ZM3.19317 34.8837C3.15406 34.8199 3.10272 34.765 3.04227 34.7222C2.98181 34.6794 2.91349 34.6496 2.84146 34.6346C2.77002 34.6189 2.6962 34.6183 2.62452 34.6328C2.55283 34.6473 2.48481 34.6767 2.42461 34.7191C2.1581 34.9138 1.87636 35.0856 1.58225 35.2327C1.47791 35.2798 1.36864 35.3145 1.25659 35.3361L1.14804 35.3417V35.315C1.13228 35.1882 1.12503 35.0604 1.12633 34.9326C1.13067 34.622 1.15383 34.2741 1.1958 33.8887C1.24248 33.4996 1.29241 33.1372 1.34777 32.8015C1.40313 32.4658 1.44656 32.2123 1.47912 32.0367C1.49263 31.9629 1.49181 31.8872 1.47673 31.8137C1.46164 31.7403 1.43258 31.6706 1.39119 31.6087C1.35065 31.5467 1.29833 31.4936 1.23735 31.4528C1.17636 31.4119 1.10796 31.384 1.03623 31.3708C0.890424 31.3429 0.739778 31.3753 0.617213 31.4608C0.556934 31.5027 0.505363 31.5564 0.465486 31.6188C0.42561 31.6812 0.398223 31.751 0.384911 31.8244C0.353431 32.0022 0.307838 32.269 0.24922 32.6159C0.190602 32.9627 0.140667 33.3462 0.0918187 33.7575C0.0403022 34.149 0.0102223 34.5432 0.00171998 34.9381C-0.00987681 35.2874 0.046965 35.6355 0.168891 35.962C0.215944 36.068 0.281833 36.1641 0.3632 36.2454C0.466141 36.347 0.594719 36.417 0.73445 36.4478C1.17314 36.5308 1.62618 36.4717 2.03057 36.2788C2.35222 36.1192 2.66078 35.9333 2.95327 35.723C2.98059 35.7062 3.00704 35.688 3.03251 35.6685C3.09474 35.6284 3.14838 35.5759 3.19018 35.514C3.23198 35.452 3.26106 35.3821 3.27567 35.3083C3.29036 35.2355 3.29063 35.1604 3.27645 35.0874C3.26228 35.0145 3.23396 34.9452 3.19317 34.8837Z" fill="#3E63B0"/>
<path d="M9.57818 32.2857C9.5561 32.071 9.48589 31.8644 9.37302 31.682C9.23178 31.4535 9.01032 31.2892 8.75427 31.2229C8.43155 31.155 8.09655 31.1835 7.78924 31.3052C7.16351 31.544 6.61121 31.9492 6.18917 32.4791L6.06108 32.6492L6.1197 32.299C6.20147 31.8076 6.2619 31.4034 6.30098 31.0862C6.31124 31.0109 6.30632 30.9343 6.28653 30.8611C6.26674 30.7879 6.23249 30.7196 6.18592 30.6604C6.09253 30.5409 5.95676 30.4642 5.80828 30.4469C5.6598 30.4296 5.51067 30.4732 5.39348 30.5681C5.33559 30.6141 5.28737 30.6716 5.25174 30.7371C5.21611 30.8026 5.19379 30.8749 5.18615 30.9494C5.15068 31.237 5.09207 31.6124 5.01029 32.0756C4.92417 32.5706 4.8424 33.095 4.76496 33.6486C4.69288 34.1518 4.64831 34.6588 4.63144 35.1671C4.60239 35.6017 4.67187 36.0374 4.83443 36.44C4.98351 36.6801 5.17999 36.7801 5.42388 36.7401C5.66776 36.7001 5.82299 36.5419 5.88957 36.2654C6.0002 35.4757 6.22712 34.7077 6.56259 33.9876C6.87648 33.2635 7.45181 32.6918 8.16809 32.3924C8.24325 32.3627 8.32223 32.3443 8.40256 32.3379H8.4449V32.349C8.47711 32.5088 8.48443 32.6727 8.46661 32.8348C8.43122 33.2389 8.37067 33.6403 8.28532 34.0365C8.26361 34.1533 8.24082 34.2733 8.21585 34.3967C8.1442 34.7502 8.07907 35.1048 8.01828 35.4617C7.93407 35.9245 7.89769 36.3951 7.90973 36.8657C7.9184 37.0187 7.98546 37.162 8.09644 37.2648C8.15125 37.3157 8.21562 37.3545 8.28563 37.379C8.35563 37.4035 8.42977 37.413 8.50351 37.4071C8.65277 37.3978 8.79258 37.3292 8.89322 37.2159C8.99313 37.1023 9.04504 36.9528 9.03759 36.8001C9.02788 36.4155 9.05808 36.031 9.12769 35.6529C9.18414 35.3194 9.2471 34.9859 9.3144 34.6424C9.34263 34.5157 9.36976 34.3878 9.39473 34.26C9.4864 33.8149 9.55237 33.3646 9.5923 32.9115C9.60671 32.7029 9.60199 32.4934 9.57818 32.2857Z" fill="#3E63B0"/>
<path d="M23.0725 26.7796C22.5543 26.409 21.7905 26.2734 20.781 26.3727C19.9729 26.457 19.1923 26.7194 18.4927 27.142C18.2776 27.2754 18.072 27.4239 17.8772 27.5867C17.4829 27.9137 17.1338 28.294 16.8394 28.7172L16.7059 28.9296L16.0871 29.1152C15.6759 29.2497 15.2747 29.4143 14.8865 29.6077C14.2106 29.9298 13.5879 30.3581 13.0412 30.8772C12.5425 31.3634 12.2491 31.8725 12.1608 32.4046C12.0884 32.7389 12.1018 33.1676 12.201 33.6908C12.3001 34.214 12.637 34.6646 13.2116 35.0426C13.3384 35.1175 13.4889 35.1383 13.6306 35.1004C13.7007 35.0812 13.7663 35.0477 13.8235 35.0021C13.8807 34.9565 13.9285 34.8996 13.9639 34.8347C14.037 34.7052 14.0572 34.5514 14.0203 34.4067C14.0014 34.3349 13.9687 34.2676 13.9241 34.2089C13.8796 34.1501 13.8241 34.1009 13.7609 34.0643C13.6378 33.9925 13.5303 33.8957 13.445 33.7799C13.3597 33.6641 13.2983 33.5316 13.2648 33.3907C13.2049 33.1223 13.1997 32.8441 13.2496 32.5736C13.2807 32.3372 13.4689 32.0407 13.814 31.6843C14.1592 31.3278 14.6752 30.975 15.362 30.626C15.5248 30.5415 15.6974 30.4637 15.8787 30.3903L15.9873 30.3469L15.7908 30.9028C15.6711 31.2847 15.5729 31.6733 15.4966 32.0667C15.0309 32.2045 14.5707 32.3657 14.1158 32.5469C13.9783 32.6004 13.867 32.7075 13.8065 32.8448C13.7483 32.9813 13.7445 33.1356 13.7958 33.275C13.8471 33.4143 13.9494 33.5276 14.0811 33.5908C14.1462 33.6217 14.2167 33.6391 14.2884 33.642C14.3602 33.6448 14.4317 33.6331 14.499 33.6074C14.7878 33.4963 15.0591 33.394 15.3153 33.3062C15.1926 34.6636 15.2214 36.0308 15.4011 37.3815C15.4094 37.4551 15.4319 37.5262 15.4674 37.5907C15.5029 37.6552 15.5506 37.7118 15.6077 37.7571C15.6649 37.8025 15.7303 37.8357 15.8001 37.8548C15.8699 37.8739 15.9428 37.8786 16.0144 37.8684C16.1603 37.849 16.2927 37.771 16.3824 37.6517C16.4269 37.593 16.4594 37.5257 16.478 37.4539C16.4967 37.3821 16.5011 37.3073 16.491 37.2337C16.3031 35.826 16.2943 34.3993 16.4649 32.9894C17.1119 32.8485 18.0577 32.7815 19.3025 32.7881C19.449 32.7896 19.5901 32.7314 19.6948 32.6263C19.7994 32.5213 19.859 32.3779 19.8604 32.2279C19.8619 32.0778 19.805 31.9333 19.7024 31.8261C19.5998 31.719 19.4599 31.6579 19.3133 31.6565C18.4341 31.6342 17.5546 31.6837 16.6831 31.8043C16.7845 31.3828 16.9184 30.9702 17.0837 30.5704C17.1706 30.3592 17.2685 30.1529 17.3767 29.9523L17.3876 29.9312L17.6438 29.8756C18.0167 29.8034 18.3938 29.7567 18.7727 29.7355C19.3156 29.7039 19.86 29.7162 20.401 29.7722C21.3903 29.8997 22.1864 29.8085 22.7892 29.4987C23.392 29.1889 23.7238 28.7465 23.7846 28.1714C23.8273 27.6096 23.5899 27.1457 23.0725 26.7796ZM22.4852 28.3693C22.2846 28.5156 22.0534 28.6119 21.81 28.6505C21.3916 28.7206 20.9649 28.7206 20.5465 28.6505C20.0154 28.589 19.4803 28.5708 18.9464 28.5961L18.3863 28.6339L18.5676 28.4649C19.1972 27.932 19.9777 27.6078 20.9091 27.4922C21.2744 27.4403 21.6455 27.4505 22.0076 27.5222C22.2717 27.5896 22.4527 27.6789 22.5504 27.7901C22.6513 27.9013 22.6969 27.9946 22.6861 28.0714C22.6752 28.1481 22.622 28.2503 22.4852 28.3693Z" fill="#3E63B0"/>
<path d="M27.889 35.7785C27.7906 35.6184 27.7319 35.2508 27.7131 34.6757C27.7131 34.4534 27.7131 34.2399 27.7131 34.041V33.9376C27.721 33.7522 27.7159 33.5664 27.6979 33.3817C27.6979 33.3528 27.6882 33.3217 27.6817 33.2895C27.6598 33.196 27.6151 33.1098 27.5516 33.039C27.4882 32.9682 27.4081 32.9151 27.3191 32.8848L27.2974 32.8737L27.3137 32.8359C27.3486 32.726 27.3505 32.6079 27.3191 32.4969C27.0658 31.6401 26.5719 31.1647 25.8373 31.0706C25.5165 31.0452 25.1943 31.0966 24.8962 31.2207C24.5923 31.3444 24.3075 31.5125 24.0506 31.7198C23.5094 32.1589 23.0673 32.7125 22.7544 33.3428C22.4578 33.8933 22.3511 34.5301 22.4516 35.1504C22.4635 35.2271 22.4798 35.3027 22.4983 35.3794C22.5761 35.6634 22.7362 35.9165 22.9574 36.1053C23.0501 36.1768 23.1525 36.2341 23.2614 36.2754C23.6438 36.383 24.051 36.35 24.412 36.182C24.4834 36.1516 24.553 36.1171 24.6205 36.0786C25.0287 35.8569 25.4145 35.5944 25.7722 35.2949C26.0523 35.0615 26.3135 34.8391 26.556 34.6279L26.5874 34.6001V34.7113C26.5907 34.9946 26.6135 35.2773 26.6558 35.5573C26.6558 35.5573 26.6558 35.5573 26.6558 35.5639C26.6966 35.8644 26.7947 36.1538 26.9446 36.4155C26.9837 36.4792 27.035 36.5341 27.0955 36.5769C27.1559 36.6197 27.2243 36.6495 27.2963 36.6645C27.4431 36.6952 27.5959 36.6669 27.7229 36.5856C27.7852 36.5447 27.8388 36.4915 27.8805 36.4291C27.9223 36.3666 27.9514 36.2962 27.9661 36.222C27.9823 36.1466 27.9839 36.0685 27.9706 35.9924C27.9574 35.9163 27.9297 35.8436 27.889 35.7785ZM26.4333 33.2117C26.3052 33.3169 26.1825 33.4225 26.0653 33.5285L26.0382 33.5507C25.9962 33.5907 25.9517 33.6308 25.9046 33.6708C25.6448 33.9072 25.3677 34.1473 25.0731 34.3911C24.7712 34.6447 24.4462 34.8681 24.1027 35.0581C24.0209 35.1018 23.936 35.1389 23.8487 35.1693C23.801 35.185 23.7519 35.1958 23.7021 35.2015C23.6846 35.2056 23.6664 35.2056 23.6489 35.2015C23.6489 35.1938 23.6359 35.1782 23.6218 35.1548C23.6031 35.1198 23.5889 35.0824 23.5794 35.0437C23.4926 34.6924 23.5577 34.29 23.7748 33.8364C24.0092 33.3658 24.3429 32.9545 24.7518 32.6325C25.1723 32.319 25.5012 32.1789 25.7386 32.2123C25.841 32.2239 25.9362 32.2719 26.0078 32.3479C26.1217 32.4827 26.2015 32.6442 26.2401 32.8181C26.2717 32.9277 26.3348 33.025 26.4214 33.0972L26.5071 33.1572L26.4333 33.2117Z" fill="#3E63B0"/>
<path d="M35.3681 32.2857C35.346 32.071 35.2758 31.8644 35.163 31.682C35.0217 31.4535 34.8003 31.2892 34.5442 31.2229C34.2215 31.155 33.8865 31.1835 33.5792 31.3052C32.9515 31.5431 32.3972 31.9484 31.9737 32.4791L31.8456 32.6492L31.9042 32.299C31.986 31.8076 32.0464 31.4034 32.0855 31.0862C32.0958 31.0109 32.0908 30.9343 32.071 30.8611C32.0513 30.7879 32.017 30.7196 31.9704 30.6604C31.877 30.5409 31.7413 30.4642 31.5928 30.4469C31.4443 30.4296 31.2952 30.4732 31.178 30.5681C31.1201 30.6141 31.0719 30.6716 31.0363 30.7371C31.0006 30.8026 30.9783 30.8749 30.9707 30.9494C30.9345 31.237 30.8759 31.6124 30.7948 32.0756C30.7087 32.5706 30.6265 33.095 30.5484 33.6486C30.4772 34.1519 30.433 34.6588 30.416 35.1671C30.3857 35.6013 30.4533 36.0368 30.6135 36.44C30.7633 36.6801 30.9598 36.7801 31.203 36.7401C31.4461 36.7001 31.6017 36.5419 31.6697 36.2654C31.7832 35.4754 32.0127 34.7074 32.3504 33.9876C32.6651 33.2637 33.2406 32.6922 33.9569 32.3924C34.0321 32.3627 34.1111 32.3443 34.1914 32.3379H34.2338L34.2392 32.349C34.2714 32.5088 34.2787 32.6727 34.2609 32.8348C34.2255 33.2389 34.165 33.6403 34.0796 34.0365C34.0579 34.1533 34.0351 34.2733 34.0101 34.3967C33.9385 34.7502 33.8734 35.1048 33.8126 35.4617C33.7278 35.9244 33.6914 36.3951 33.704 36.8657C33.7127 37.0187 33.7797 37.162 33.8907 37.2648C33.945 37.3151 34.0087 37.3537 34.0779 37.3781C34.1471 37.4026 34.2204 37.4124 34.2935 37.4071C34.4427 37.3975 34.5824 37.329 34.6832 37.2159C34.7828 37.1022 34.8343 36.9527 34.8265 36.8001C34.8177 36.4155 34.8483 36.031 34.9176 35.6529C34.9741 35.3194 35.037 34.9859 35.1043 34.6424C35.1326 34.5157 35.1597 34.3878 35.1847 34.26C35.2763 33.8149 35.3423 33.3646 35.3822 32.9115C35.3961 32.7029 35.3914 32.4934 35.3681 32.2857Z" fill="#3E63B0"/>
<path d="M45.6297 27.7356C45.5779 27.6817 45.516 27.639 45.4477 27.61C45.3795 27.581 45.3063 27.5662 45.2324 27.5666C43.6859 27.5526 42.1245 27.6163 40.5484 27.7579C40.6524 27.3431 40.7934 26.939 40.9696 26.5506C41.0033 26.4823 41.0233 26.4077 41.0284 26.3313C41.0334 26.2549 41.0234 26.1783 40.9989 26.1059C40.952 25.9614 40.8513 25.8415 40.7188 25.7724C40.5839 25.7035 40.4278 25.6919 40.2846 25.7402C40.2139 25.763 40.1486 25.8005 40.0925 25.8502C40.0365 25.8999 39.9911 25.9608 39.9589 26.0292C39.7155 26.5781 39.5236 27.1495 39.3858 27.7356C39.3749 27.7868 39.363 27.8357 39.3489 27.8835C37.5032 28.0969 35.6731 28.4334 33.8702 28.8906C33.7256 28.928 33.6011 29.0223 33.5239 29.153C33.4855 29.2177 33.4601 29.2896 33.4491 29.3645C33.4381 29.4394 33.4417 29.5158 33.4598 29.5893C33.4779 29.6627 33.51 29.7317 33.5544 29.7923C33.5988 29.8529 33.6545 29.9039 33.7182 29.9423C33.8459 30.02 33.9979 30.0443 34.1427 30.0101C35.7652 29.5958 37.4111 29.284 39.071 29.0763C39.0037 29.382 38.9407 29.6921 38.8843 30.0045C38.5608 31.7239 38.3581 33.0786 38.2764 34.0688C38.2764 34.1199 38.2655 34.2022 38.2547 34.3144C38.2438 34.4267 38.2243 34.5824 38.2069 34.7591C38.1678 35.1059 38.1428 35.4939 38.132 35.923C38.1171 36.3437 38.1458 36.7648 38.2177 37.1792C38.2526 37.3833 38.3136 37.5817 38.399 37.7695C38.4895 37.9713 38.6266 38.1476 38.7985 38.2831C38.9414 38.3887 39.1058 38.4598 39.2794 38.491C39.6614 38.5333 40.0457 38.4365 40.3649 38.2175C40.4285 38.1788 40.4839 38.1275 40.5279 38.0666C40.5719 38.0057 40.6036 37.9365 40.6211 37.8629C40.6572 37.7149 40.6362 37.5585 40.5625 37.426C40.5249 37.3607 40.4749 37.3038 40.4154 37.2588C40.3559 37.2137 40.2882 37.1813 40.2162 37.1636C40.0714 37.1267 39.9183 37.1482 39.7885 37.2237C39.7234 37.2682 39.6539 37.3054 39.5812 37.3348C39.5482 37.347 39.5139 37.3552 39.4791 37.3593H39.4694L39.4585 37.3482C39.4427 37.3244 39.4299 37.2986 39.4205 37.2715C39.3759 37.1723 39.3438 37.0677 39.325 36.9602C39.2683 36.6267 39.2468 36.2879 39.2609 35.9497C39.2718 35.5643 39.2949 35.2075 39.3304 34.8792C39.3445 34.7291 39.3586 34.5968 39.3727 34.4801C39.3865 34.3452 39.3973 34.2396 39.4053 34.1633C39.4371 33.7519 39.5045 33.1939 39.6072 32.4891C39.71 31.7843 39.8381 31.0332 39.9915 30.2357C40.0769 29.7911 40.1659 29.3612 40.2585 28.9462C41.9088 28.7801 43.5667 28.7058 45.2248 28.7239C45.3366 28.7251 45.4463 28.6923 45.5399 28.6297C45.6335 28.567 45.7068 28.4773 45.7505 28.3719C45.7942 28.2665 45.8064 28.1502 45.7855 28.0377C45.7645 27.9252 45.7115 27.8216 45.633 27.7401L45.6297 27.7356Z" fill="#3E63B0"/>
<path d="M76.7898 26.8641C76.2832 26.4995 75.5233 26.3338 74.5102 26.3672C73.9073 26.4103 73.3286 26.6269 72.8406 26.9919C72.4138 27.3095 72.0346 27.6893 71.715 28.1191C71.6368 28.2236 71.5597 28.3315 71.4859 28.4426L71.2829 28.765L70.6642 28.9229C69.5403 29.2764 68.6559 29.7763 68.0111 30.4225C67.3663 31.0688 66.9915 31.7295 66.8865 32.4046C66.8142 32.7389 66.8286 33.1676 66.93 33.6908C67.0313 34.214 67.3689 34.6646 67.9428 35.0426C68.0372 35.0983 68.1457 35.124 68.2545 35.1164C68.3633 35.1089 68.4674 35.0684 68.5537 35.0002C68.64 34.932 68.7045 34.839 68.7392 34.7332C68.7738 34.6273 68.7769 34.5133 68.7482 34.4056C68.7093 34.2619 68.6174 34.1391 68.492 34.0632C68.3689 33.9914 68.2614 33.8946 68.1761 33.7788C68.0908 33.6629 68.0295 33.5305 67.9959 33.3895C67.9361 33.1213 67.929 32.8435 67.9753 32.5725C68.0245 32.2078 68.2565 31.8002 68.6711 31.3496C69.0858 30.8991 69.6857 30.5085 70.4709 30.178L70.5936 30.1335L70.3765 30.7071C70.0317 31.6718 69.8268 32.683 69.7686 33.7086C69.7174 34.459 69.8013 35.2126 70.0161 35.9319C70.2067 36.5971 70.6243 37.1699 71.1928 37.5461C72.3912 38.2953 74.0785 37.9329 76.2546 36.4589C76.3771 36.3765 76.4626 36.2478 76.4924 36.1009C76.5068 36.0279 76.5069 35.9527 76.4929 35.8796C76.4788 35.8066 76.4508 35.737 76.4105 35.6751C76.3701 35.6131 76.3183 35.5599 76.2578 35.5185C76.1973 35.4771 76.1295 35.4484 76.0582 35.4339C75.9144 35.4049 75.7653 35.4344 75.6424 35.5162C74.5931 36.2113 73.7565 36.6145 73.1327 36.7256C72.5088 36.8368 72.0508 36.7868 71.7584 36.5756C71.1194 36.1598 70.8209 35.2219 70.8628 33.762C70.9378 32.4666 71.2659 31.1998 71.8279 30.0368L71.9559 29.7967L72.0471 29.78L72.0786 29.7744C72.7506 29.6975 73.4289 29.6975 74.1009 29.7744C75.0714 29.873 75.8591 29.7774 76.4641 29.4876C77.0691 29.1978 77.4049 28.7747 77.4715 28.2181C77.5243 27.6793 77.2971 27.228 76.7898 26.8641ZM76.1786 28.3548C75.9757 28.4933 75.7456 28.5848 75.5045 28.6227C75.0822 28.6954 74.6518 28.7048 74.2269 28.6505C73.9562 28.6172 73.6913 28.5972 73.4323 28.5905L72.7647 28.5961L72.9253 28.4048C73.4377 27.8468 73.9833 27.5444 74.5623 27.4977C74.9344 27.4707 75.3084 27.501 75.6717 27.5878C75.8772 27.6344 76.0698 27.7279 76.2351 27.8612C76.3436 27.965 76.3925 28.0439 76.3816 28.098C76.3816 28.1603 76.3143 28.2459 76.1786 28.3548Z" fill="#3E63B0"/>
<path d="M84.1779 35.7785C84.1096 35.6431 84.0672 35.4956 84.053 35.3439C84.0239 35.1227 84.0069 34.9 84.002 34.6769C84.002 34.4545 84.002 34.2378 84.002 34.0377V33.9387C84.0101 33.7533 84.0046 33.5675 83.9857 33.3829C83.9857 33.354 83.977 33.3229 83.9705 33.2906C83.9486 33.197 83.9037 33.1107 83.84 33.0399C83.7764 32.9691 83.6961 32.9161 83.6069 32.886L83.5862 32.8749L83.6014 32.8371C83.6359 32.7268 83.6359 32.6083 83.6014 32.498C83.3532 31.6405 82.8626 31.1647 82.1295 31.0706C81.8086 31.0451 81.4864 31.0965 81.1883 31.2207C80.8844 31.3445 80.5996 31.5126 80.3427 31.7198C79.8009 32.1583 79.3587 32.7121 79.0466 33.3429C78.8851 33.6499 78.7778 33.9837 78.7296 34.3289C78.6833 34.6798 78.704 35.0366 78.7904 35.3794C78.8661 35.6636 79.0248 35.9172 79.2452 36.1065C79.3379 36.178 79.4403 36.2353 79.5492 36.2765C79.8663 36.3672 80.2027 36.3591 80.5153 36.2532C80.652 36.2092 80.7841 36.1511 80.9093 36.0798C81.3173 35.8578 81.7027 35.5949 82.06 35.2949C82.3415 35.0615 82.6031 34.8392 82.8448 34.628L82.8763 34.6002V34.7113C82.8788 34.9969 82.9021 35.2819 82.9458 35.564C82.9737 35.7597 83.0248 35.9512 83.0978 36.1343C83.1357 36.2315 83.1811 36.3255 83.2334 36.4155C83.2727 36.4794 83.3242 36.5344 83.3848 36.5772C83.4455 36.62 83.514 36.6497 83.5862 36.6645C83.7331 36.6952 83.8858 36.667 84.0129 36.5856C84.0752 36.5451 84.1289 36.4919 84.1705 36.4294C84.2121 36.3669 84.2409 36.2964 84.2549 36.2221C84.2715 36.1466 84.2732 36.0685 84.26 35.9924C84.2467 35.9162 84.2188 35.8435 84.1779 35.7785ZM82.7189 33.2117C82.5908 33.3169 82.4682 33.4225 82.3509 33.5285C82.3422 33.5364 82.3332 33.5438 82.3238 33.5507C82.2818 33.5908 82.2373 33.6308 82.1903 33.6708C81.9312 33.9072 81.654 34.1473 81.3587 34.3912C81.0547 34.6451 80.7276 34.8685 80.3818 35.0582C80.3003 35.1018 80.2158 35.1389 80.1288 35.1693C80.0812 35.1851 80.0321 35.1959 79.9823 35.2016C79.9648 35.2056 79.9466 35.2056 79.9291 35.2016L79.902 35.1549C79.8833 35.1198 79.8691 35.0825 79.8596 35.0437C79.7706 34.6946 79.8354 34.293 80.0539 33.8387C80.2878 33.3677 80.6216 32.9563 81.0309 32.6347C81.4499 32.3212 81.7788 32.1812 82.0177 32.2145C82.1201 32.2262 82.2153 32.2742 82.2869 32.3502C82.4004 32.4853 82.4801 32.6467 82.5192 32.8204C82.5501 32.9303 82.6134 33.0277 82.7005 33.0994L82.7862 33.1594L82.7189 33.2117Z" fill="#3E63B0"/>
<path d="M90.5825 31.8132C90.5556 31.7126 90.5143 31.6167 90.4598 31.5286C90.2427 31.2485 89.9865 31.1177 89.6913 31.1362C89.3969 31.156 89.1108 31.2438 88.8543 31.393C88.6888 31.4812 88.5285 31.5796 88.3745 31.6876C88.381 31.662 88.3865 31.6398 88.3897 31.622C88.4096 31.5489 88.4151 31.4724 88.4057 31.397C88.3963 31.3217 88.3723 31.2491 88.3351 31.1834C88.2978 31.1177 88.2481 31.0603 88.1889 31.0146C88.1297 30.9689 88.0622 30.9358 87.9903 30.9172C87.9196 30.8964 87.8455 30.8905 87.7726 30.8998C87.6996 30.9092 87.6293 30.9336 87.5658 30.9717C87.5015 31.0094 87.4451 31.0598 87.3999 31.1199C87.3546 31.1799 87.3213 31.2486 87.302 31.3219C87.2521 31.5186 87.1935 31.811 87.1207 32.2012C87.048 32.5914 86.9731 33.0383 86.9036 33.523C86.8342 34.0076 86.7701 34.4612 86.7278 34.8936C86.7061 35.1049 86.692 35.3005 86.6854 35.4784C86.6746 35.6387 86.6764 35.7997 86.6909 35.9597C86.6969 36.0347 86.7177 36.1076 86.752 36.1741C86.7863 36.2406 86.8335 36.2993 86.8906 36.3466C86.9476 36.3955 87.0135 36.4323 87.0845 36.4548C87.1555 36.4774 87.2302 36.4852 87.3042 36.4778C87.4516 36.4608 87.5871 36.3868 87.683 36.271C87.7304 36.2128 87.7661 36.1457 87.7881 36.0734C87.81 36.0011 87.8179 35.9251 87.8111 35.8497C87.8032 35.7424 87.8032 35.6346 87.8111 35.5273C87.8177 35.3783 87.8307 35.2049 87.848 35.0092C87.8907 34.6046 87.9476 34.1673 88.0185 33.6975C88.0293 33.6174 88.0402 33.5396 88.051 33.4629C88.0934 33.4151 88.1596 33.3518 88.2584 33.255C88.4288 33.0947 88.607 32.9433 88.7925 32.8015C88.9771 32.6559 89.1731 32.5261 89.3786 32.4135L89.4481 32.3757L89.5013 32.3535V32.3702C89.4948 32.4546 89.4839 32.5414 89.4698 32.6325C89.4506 32.7486 89.4256 32.8636 89.3949 32.9771C89.3772 33.0421 89.3558 33.1059 89.3309 33.1683C89.2704 33.3073 89.2657 33.465 89.3178 33.6074C89.3433 33.6787 89.3827 33.7439 89.4337 33.7989C89.4846 33.854 89.5461 33.8978 89.6142 33.9276C89.6816 33.9604 89.7548 33.979 89.8294 33.9822C89.904 33.9855 89.9785 33.9733 90.0484 33.9465C90.1178 33.92 90.1812 33.8795 90.2349 33.8274C90.2886 33.7752 90.3315 33.7125 90.361 33.643C90.4666 33.3817 90.5417 33.1086 90.5847 32.8293C90.611 32.6666 90.628 32.5026 90.6357 32.3379C90.6424 32.1613 90.6245 31.9846 90.5825 31.8132Z" fill="#3E63B0"/>
<path d="M98.8932 34.2711C98.8027 34.15 98.6694 34.0701 98.5219 34.0487C98.3748 34.0264 98.2249 34.0634 98.104 34.1521C97.0793 34.874 96.0885 35.2308 95.1318 35.2227C94.7201 35.1982 94.4375 35.1126 94.284 34.9659L94.2678 34.9492L94.1885 34.8514L94.2254 34.8569C94.662 34.8941 95.1013 34.8353 95.5139 34.6846C95.8847 34.5483 96.2261 34.3396 96.5191 34.0699C96.8504 33.7666 97.1042 33.385 97.2584 32.9582C97.335 32.7544 97.3704 32.5369 97.3626 32.3187C97.3547 32.1005 97.3038 31.8861 97.2128 31.6887C96.8821 31.1128 96.4305 30.8635 95.858 30.9405C95.3722 31.0309 94.919 31.2532 94.5456 31.5842C94.1491 31.9111 93.8007 32.2949 93.5111 32.7236C93.2301 33.1101 93.0402 33.5579 92.9564 34.0321C92.9478 34.101 92.9423 34.1688 92.9402 34.2344C92.9076 34.8725 93.0943 35.3913 93.5003 35.7907C93.945 36.1763 94.5112 36.3837 95.0938 36.3743C96.353 36.3743 97.5801 35.9426 98.7749 35.0793C98.8918 34.9859 98.9695 34.8503 98.992 34.7002C99.004 34.6255 99.0015 34.5492 98.9845 34.4755C98.9676 34.4018 98.9365 34.3324 98.8932 34.2711ZM94.2895 33.6152C94.3314 33.5411 94.3814 33.461 94.4393 33.3751C94.6674 33.0411 94.9404 32.7417 95.2502 32.4857C95.5664 32.2345 95.8135 32.1018 95.9916 32.0878C96.0135 32.0805 96.0367 32.0778 96.0596 32.0799C96.0826 32.0821 96.1049 32.089 96.1252 32.1002C96.1455 32.1114 96.1634 32.1267 96.1777 32.1452C96.1921 32.1637 96.2026 32.185 96.2087 32.2078C96.251 32.2879 96.2456 32.4202 96.1902 32.6058C96.1007 32.843 95.9548 33.0535 95.7658 33.2183C95.4003 33.5889 94.8937 33.749 94.246 33.6986L94.2895 33.6152Z" fill="#3E63B0"/>
<path d="M98.0246 13.7286C97.7999 13.7286 97.6002 14.1633 97.4504 15.0304C96.3236 19.7183 94.9537 22.2973 93.3167 22.7475C93.1445 22.7959 92.9667 22.8202 92.7881 22.8198H92.5134C92.2459 22.8002 91.9841 22.7313 91.7405 22.6164C90.5682 21.926 89.995 20.1129 89.995 17.1759C89.995 15.9241 90.2436 13.1405 90.7429 8.79949C90.7322 7.95979 90.5733 7.12898 90.274 6.34716C90.0022 5.68128 89.5114 5.13382 88.8867 4.79973C88.3294 4.50328 87.6445 4.35506 86.8318 4.35506C86.632 4.35506 86.4833 4.38063 86.4334 4.43177C85.934 4.43177 85.6355 5.50452 85.5107 7.64892C84.0886 5.78577 82.5678 4.86976 80.9721 4.86976H80.4739C79.2798 4.86976 78.0292 5.40669 76.7082 6.50502C76.2473 6.96098 75.8179 7.44905 75.4229 7.96574C75.052 8.44993 74.716 8.96117 74.4177 9.49539C74.2559 8.71581 74.0322 7.95105 73.749 7.2087C73.2542 5.8868 72.5657 4.64979 71.7071 3.54021C71.4226 3.17431 71.1178 2.82542 70.7942 2.49525C69.0813 0.73326 67.2055 0.144078 65.1777 0.703245C64.1276 1.00877 63.1542 1.54265 62.3238 2.26847C62.0709 2.48302 61.8158 2.69201 61.5575 2.90656C61.5401 2.8621 61.5249 2.8243 61.5108 2.7865C61.3749 2.38513 61.1873 2.00416 60.9528 1.65372C60.574 1.12123 60.1398 0.864436 59.6198 0.908903C59.2062 0.944476 58.8241 1.14902 58.4605 1.43361C57.8461 1.91385 57.2859 2.52637 56.7366 3.16002C56.411 3.54021 56.0701 3.91039 55.7944 4.39063C55.7944 4.39063 55.7825 4.39063 55.777 4.39063C55.7732 4.38297 55.7706 4.3747 55.7694 4.36618C55.7694 4.31615 55.7694 4.26613 55.7694 4.21721C55.7835 3.6836 55.7199 3.15082 55.5806 2.63643C55.2549 1.48474 54.6459 0.973379 53.8535 0.922243C53.4193 0.894451 53.0024 1.04564 52.591 1.2424C51.2976 1.8485 50.1538 2.74476 49.2443 3.86482C48.758 4.46178 48.2989 5.10877 47.8266 5.73352C47.806 5.75909 47.7843 5.78132 47.7507 5.82134C47.7691 5.56122 47.7865 5.32999 47.8017 5.09765C47.8617 4.46715 47.8654 3.83234 47.8125 3.20115C47.6616 1.85826 46.9875 0.962263 46.105 0.977826C46.0003 0.979812 45.8958 0.989097 45.7924 1.00562C45.1885 1.10391 44.6339 1.4055 44.2162 1.86271C43.3243 2.79275 42.5166 3.80369 41.8031 4.8831C41.7088 5.03518 41.6402 5.20241 41.6001 5.37779C41.4481 6.00143 41.5892 6.68288 41.9387 7.08753C42.2883 7.49218 42.7844 7.52664 43.1383 7.12755C43.2875 6.95065 43.4267 6.76506 43.5551 6.57172C43.7559 6.2838 43.9502 5.98698 44.1489 5.69795C44.2017 5.6309 44.2582 5.56705 44.3182 5.50674C44.2802 5.97142 44.2477 6.39608 44.2097 6.81517C44.1177 8.0387 43.9638 9.2565 43.7483 10.4637C43.4933 11.7196 43.3275 12.9928 43.2522 14.2733C43.1759 15.7115 43.2732 17.1539 43.5421 18.5677C43.5475 18.5955 43.5529 18.6233 43.5594 18.6511C42.691 21.0967 41.6978 22.5282 40.5797 22.9454C40.3539 23.0314 40.115 23.0754 39.8741 23.0755H39.5994C39.3992 23.0648 39.2019 23.0208 39.0154 22.9454C38.9546 22.9232 38.8906 22.8987 38.8265 22.8709C37.6542 22.1806 37.081 20.3686 37.081 17.4305C37.081 16.1798 37.3307 13.3962 37.8289 9.05517C37.8162 8.21743 37.6558 7.38893 37.3557 6.60951C36.7847 5.27848 35.6391 4.61297 33.9189 4.61297C33.7181 4.61297 33.5693 4.63853 33.5194 4.68856C33.0201 4.68856 32.7215 5.76131 32.5967 7.91238C31.1747 6.04812 29.6538 5.13322 28.0581 5.13322H27.5588C26.3647 5.13322 25.1153 5.66905 23.7931 6.76737C22.8916 7.65215 22.1178 8.66392 21.495 9.7722C21.1694 7.22427 19.7766 5.29775 17.471 4.00155C16.176 3.27897 14.7365 2.67867 13.2961 2.41076C9.86362 1.77044 6.40622 1.27798 2.95316 0.769945L1.2771 0.525379C0.875458 0.467572 0.230656 0.53983 0.072169 0.795513C-0.0982586 1.06898 0.0678269 1.69151 0.269735 2.05614C1.13816 3.62803 1.92625 5.27996 2.95316 6.73624C3.08233 6.91967 3.21585 7.10087 3.35371 7.27762C5.15569 9.5821 4.91362 11.7032 3.72497 14.1699C3.44924 14.7421 3.19197 15.3246 2.95316 15.9175C2.28518 17.6018 1.70541 19.3214 1.21631 21.0689C0.652926 23.0399 1.52135 24.6818 3.44056 25.2799C4.71062 25.6757 6.15437 25.9269 7.44506 25.7446C9.98217 25.4044 12.4022 24.4443 14.501 22.9454C16.5027 21.5191 18.2091 19.636 19.6724 17.4104C19.7701 17.2615 19.8646 17.1125 19.9558 16.9602C19.9864 18.3193 20.2476 19.6625 20.7276 20.93C21.0401 21.6356 21.4155 22.3103 21.8489 22.9454C23.0647 24.6963 24.5312 25.5778 26.2388 25.5778H26.5872C28.3414 25.5778 29.9241 24.7007 31.3636 22.9454C31.7694 22.4449 32.1412 21.9163 32.4762 21.3635C32.5511 21.3635 32.6011 21.4413 32.6011 21.5681C32.8151 22.0421 33.0576 22.5021 33.3273 22.9454C34.5018 24.8441 35.9325 25.8068 37.6303 25.8068H38.1785C39.8502 25.8068 41.4459 24.9898 42.9418 23.3556C43.046 23.2193 43.1466 23.0825 43.2436 22.9454C43.6141 22.4354 43.9565 21.9047 44.2694 21.3557C44.4474 21.8967 44.641 22.4266 44.8501 22.9454C44.9869 23.2848 45.1316 23.6183 45.2843 23.9459C45.4493 24.3105 45.619 24.6681 45.7935 25.0187C46.7663 26.9592 47.9005 28.8103 49.1836 30.5514C50.3845 32.1792 51.6743 33.7362 53.0469 35.2148C54.0923 36.3587 55.1453 37.4815 56.3035 38.362C56.4059 38.4453 56.5321 38.4922 56.6628 38.4954H56.6932L56.7399 38.4898C56.8246 38.4717 56.9047 38.4355 56.9748 38.3836C57.045 38.3317 57.1036 38.2652 57.147 38.1885C57.1654 38.1585 57.1828 38.1274 57.1991 38.0941C57.3043 37.8718 57.3544 37.6264 57.3449 37.3795C57.3354 37.1327 57.2667 36.8921 57.1448 36.6789L56.9201 36.3087C56.5314 35.6197 56.0996 34.9573 55.6272 34.3255C53.6994 31.8607 52.0198 29.2025 50.6143 26.3916C50.0541 25.2799 49.5222 24.1304 49.0337 22.9454C48.6719 22.0635 48.3332 21.1564 48.0177 20.2241C47.502 18.7269 47.1908 17.1639 47.0928 15.5795C46.9011 12.7896 47.651 10.0169 49.2172 7.72563C49.6938 7.01416 50.2018 6.3694 50.8108 5.93473C51.1655 5.66211 51.5856 5.49273 52.0265 5.44449C52.2046 5.42893 52.2274 5.46784 52.2067 5.73797C52.1166 6.92967 52.0341 8.12249 51.9256 9.30975C51.7193 11.5509 51.4914 13.7886 51.284 16.0309C51.2199 16.5409 51.2036 17.0561 51.2352 17.5694C51.3199 18.4643 51.5989 19.1513 52.1416 19.5426C52.5541 19.8394 52.984 19.8361 53.4193 19.6805C54.6134 19.2525 55.6446 18.3465 56.5402 17.068L57.1491 16.1987C57.1394 16.2966 57.1209 16.4577 57.1101 16.6189C57.0786 17.0914 57.0254 17.565 57.0276 18.0374C57.0276 18.8856 57.4238 19.4726 57.9731 19.4826C58.4594 19.497 58.924 19.3014 59.3842 19.0802C59.9151 18.8223 60.2603 18.2731 60.4198 17.4516C60.4437 17.3271 60.473 17.2059 60.4871 17.0792C60.5957 16.0431 60.7184 15.0092 60.8128 13.9665C60.9208 12.6466 61.2243 11.3511 61.7127 10.1246C62.175 8.98815 62.7967 7.92682 63.5581 6.97414C64.9052 5.28441 66.4098 4.98204 68.0088 5.91917C68.824 6.40497 69.4644 7.28096 69.9931 8.32926C70.6667 9.68768 71.0168 11.1901 71.0146 12.7137C71.0097 13.393 70.948 14.0706 70.83 14.7391C70.5432 16.4732 70.0834 18.1726 69.4579 19.8105C69.0548 20.8911 68.6206 21.936 68.1553 22.9454C67.2628 24.9126 66.2158 26.8023 65.0246 28.596C63.9152 30.2568 62.7711 31.8587 61.6411 33.4873C61.3393 33.9209 61.0299 34.3422 60.7292 34.7769C60.6207 34.9399 60.5484 35.1253 60.5175 35.3201C60.4865 35.5149 60.4977 35.7142 60.5501 35.9041C60.5501 35.9185 60.5566 35.933 60.561 35.9463C60.6695 36.3432 60.8692 36.57 61.1504 36.5833C61.366 36.589 61.577 36.5192 61.7485 36.3854C61.7485 36.3854 61.7485 36.3854 61.7539 36.3854C61.7941 36.3567 61.8325 36.3255 61.869 36.292C63.0783 35.1982 64.2572 34.042 65.4067 32.7981C67.8393 30.1703 69.9533 27.2515 71.7028 24.1049L71.7256 24.0637C71.9275 23.6984 72.1243 23.3278 72.3161 22.9521C72.7619 22.084 73.1548 21.1885 73.4928 20.2708C73.5384 20.4064 73.5862 20.5431 73.6361 20.6798C73.9881 21.4837 74.4249 22.2456 74.9388 22.9521C76.1176 24.5329 77.5194 25.3251 79.1441 25.3288H79.4936C81.1599 25.3288 82.671 24.5362 84.0528 22.9521C84.233 22.7453 84.41 22.5252 84.5858 22.2918C84.8572 21.9316 85.1228 21.5392 85.3826 21.1145C85.4575 21.1145 85.5074 21.1912 85.5074 21.319C85.667 21.6637 85.8331 21.986 86.0035 22.2918C86.1331 22.5245 86.2666 22.7446 86.4041 22.9521C87.5471 24.6807 88.9236 25.5578 90.5443 25.5578H91.0936C92.7642 25.5578 94.3599 24.7408 95.8558 23.1122C97.9508 20.3541 99.0038 17.5194 99.0038 14.6846V14.1622C99.0016 14.0087 98.676 13.8553 98.0246 13.7286ZM5.147 18.0841C5.2371 17.555 5.4846 17.1058 5.77878 16.6756C6.06736 16.2534 6.40449 15.8682 6.78289 15.5284C7.25546 15.1015 7.73852 14.6869 8.23207 14.2844C8.55773 14.0176 8.91052 13.7831 9.25138 13.5341L9.26766 13.523C9.45654 13.3873 9.45763 13.3562 9.26766 13.2495C9.06033 13.116 8.88783 12.9329 8.76506 12.7159C8.44287 12.2352 8.17794 11.7168 7.97589 11.1718C7.89159 10.9337 7.81913 10.6914 7.75878 10.4459C7.75076 10.3715 7.75516 10.2963 7.77181 10.2235C7.77456 10.2033 7.77456 10.1827 7.77181 10.1624C7.77284 10.1476 7.77284 10.1327 7.77181 10.1179C7.77181 10.0523 7.78049 9.98564 7.787 9.92005V9.91338C7.78861 9.89489 7.78861 9.87629 7.787 9.8578C7.78972 9.84273 7.78972 9.82728 7.787 9.81222C7.78509 9.77865 7.77926 9.74543 7.76964 9.71328C7.71645 9.49095 7.66868 9.26861 7.61549 9.04628C7.59516 8.97539 7.57124 8.90564 7.54385 8.83729H7.51671C7.49853 8.8636 7.48494 8.89294 7.47654 8.924C7.45375 9.19302 7.43204 9.46316 7.41576 9.73218C7.41203 9.75909 7.41203 9.78641 7.41576 9.81333C7.41468 9.8311 7.41468 9.84892 7.41576 9.86669C7.41576 9.9156 7.41576 9.96452 7.41576 10.0134C7.41629 10.019 7.41629 10.0246 7.41576 10.0301C7.4081 10.0667 7.4081 10.1046 7.41576 10.1413C7.44832 10.4314 7.4798 10.7227 7.52431 11.0117C7.61606 11.5432 7.80936 12.0509 8.09312 12.5058C8.24961 12.7776 8.45518 13.0164 8.69885 13.2095C8.74552 13.245 8.78569 13.2884 8.82802 13.3273C8.82232 13.3358 8.81724 13.3447 8.81283 13.354C8.7448 13.3313 8.67811 13.3045 8.61309 13.2739C8.10947 13.0087 7.68469 12.6098 7.38319 12.1189C7.09788 11.6566 6.88507 11.1513 6.7525 10.6215C6.59486 10.024 6.53579 9.40364 6.57773 8.78615C6.60612 8.30129 6.7163 7.82514 6.90339 7.37879C7.05573 7.00396 7.2853 6.66724 7.57641 6.39163C7.86513 6.11415 8.22513 5.92673 8.61418 5.85136C8.87036 5.80467 9.13197 5.78799 9.39141 5.76576C9.45678 5.76761 9.52168 5.77769 9.58464 5.79578C9.3849 5.90027 9.1971 5.9792 9.02885 6.08926C8.60131 6.38534 8.25069 6.7837 8.00737 7.24983C7.8106 7.62429 7.72283 8.04867 7.75444 8.47266C7.7731 8.72218 7.83446 8.96639 7.93572 9.19413C8.00474 9.34251 8.06174 9.49643 8.10615 9.65436C8.1626 9.91671 8.46546 9.99564 8.65868 9.91783C8.71772 9.89921 8.77792 9.88472 8.83888 9.87447L8.85842 9.90337C8.83641 9.94438 8.80861 9.98184 8.77592 10.0145C8.72291 10.0586 8.66171 10.0912 8.59602 10.1103C8.53033 10.1294 8.46154 10.1347 8.39381 10.1257C8.34862 10.1229 8.30331 10.1229 8.25812 10.1257C8.17237 10.1257 8.11809 10.1735 8.13112 10.2591C8.15464 10.4636 8.1909 10.6663 8.23967 10.8661C8.38467 11.3607 8.6088 11.8273 8.90293 12.2468C9.09492 12.5248 9.33609 12.7634 9.61395 12.9504C9.68911 13.0103 9.78281 13.0404 9.8779 13.0353C9.97299 13.0302 10.0631 12.9902 10.1317 12.9227C10.1401 12.9151 10.15 12.9094 10.1606 12.906C10.1713 12.9025 10.1825 12.9014 10.1936 12.9026L10.0156 13.0483C9.9548 13.0961 9.89184 13.1417 9.83322 13.1939C9.35016 13.6263 8.85625 14.0454 8.38839 14.4979C7.90664 14.9716 7.46168 15.483 7.05753 16.0275C6.68468 16.5095 6.36368 17.0313 6.1001 17.5839C5.85911 18.1108 5.66589 18.6577 5.70062 19.2514C5.71496 19.3891 5.7378 19.5257 5.76901 19.6604C5.76901 19.6838 5.76901 19.7083 5.76901 19.7305L5.74187 19.7516C5.68325 19.6871 5.62029 19.6271 5.5671 19.5582C5.38139 19.3391 5.24633 19.08 5.17197 18.8C5.1168 18.5655 5.10831 18.322 5.147 18.0841ZM15.885 10.3447C15.8414 10.095 15.7491 9.85678 15.6137 9.64436C15.3941 9.32054 15.0944 9.06233 14.7452 8.89621C14.3569 8.68778 13.9232 8.5841 13.4849 8.59495C13.2892 8.59003 13.0934 8.59857 12.8987 8.62051C12.2594 8.74391 11.696 9.07963 11.4528 9.82667C11.3224 10.2342 11.2633 10.6621 11.2781 11.0906C11.272 11.1724 11.2575 11.2533 11.2346 11.3319H11.1912C11.1738 11.2418 11.1511 11.1518 11.1391 11.0595C11.1272 10.9672 11.0848 10.8916 10.9795 10.8828C10.9314 10.8774 10.883 10.89 10.8431 10.9181C10.8033 10.9463 10.7746 10.9882 10.7624 11.0362C10.6832 11.3196 10.6398 11.6164 10.7483 11.8977C10.802 11.9961 10.8793 12.0788 10.973 12.1378C11.0056 12.1634 11.0816 12.1278 11.1489 12.1189V12.2379C11.1489 12.3868 11.1489 12.5369 11.1489 12.6825C11.1652 12.9255 11.2241 13.1635 11.3226 13.3851C11.4786 13.7227 11.7199 14.0113 12.0216 14.2211C12.1405 14.3143 12.2547 14.4137 12.3636 14.519C12.5022 14.642 12.6718 14.7226 12.853 14.7515C13.0343 14.7803 13.2198 14.7564 13.3883 14.6824C13.473 14.6402 13.5512 14.5824 13.638 14.5468C13.7814 14.4841 13.9295 14.4336 14.0809 14.3956C14.4586 14.3282 14.8052 14.1384 15.0698 13.8542C15.1823 13.705 15.2798 13.5444 15.3607 13.3751C15.39 13.3251 15.4128 13.2695 15.4454 13.2039C15.5312 13.3151 15.4801 13.4262 15.4552 13.5241C15.3368 14.001 15.021 14.3022 14.5867 14.479C14.3805 14.5612 14.1601 14.609 13.9506 14.6846C13.7867 14.7436 13.6315 14.8247 13.4708 14.8925C13.3288 14.9672 13.1791 15.0257 13.0247 15.0671C12.9068 15.0727 12.7894 15.0487 12.6827 14.997C12.5801 14.9532 12.4819 14.8992 12.3896 14.8358C12.318 14.7925 12.2811 14.8103 12.2811 14.8936C12.2811 15.0048 12.2811 15.116 12.2811 15.2271C12.2746 15.3839 12.267 15.5406 12.255 15.6974C12.2474 15.8085 12.2735 15.8552 12.3842 15.8508C12.6067 15.8397 12.8293 15.8152 13.0529 15.803C13.3004 15.7907 13.5468 15.7752 13.7943 15.783C14.0627 15.7882 14.3305 15.8131 14.5954 15.8574C14.9165 15.9156 15.2186 16.0542 15.4747 16.261C15.5995 16.3621 15.5887 16.4611 15.4519 16.5367C15.3151 16.6123 15.3629 16.7257 15.3792 16.829C15.3901 16.8891 15.3867 16.9509 15.3693 17.0094C15.352 17.0678 15.3211 17.1211 15.2793 17.1647C15.2376 17.2083 15.1862 17.241 15.1295 17.26C15.0728 17.279 15.0125 17.2837 14.9537 17.2737C14.898 17.265 14.845 17.2437 14.7984 17.2115C14.7425 17.1694 14.6775 17.1417 14.6089 17.1307C14.5404 17.1197 14.4702 17.1256 14.4044 17.1481C14.2479 17.1937 14.0806 17.1799 13.9333 17.1092C13.8931 17.0916 13.8495 17.0836 13.8058 17.086C13.7622 17.0883 13.7196 17.1008 13.6814 17.1225C13.3634 17.2681 13.0475 17.4204 12.724 17.5516C12.3346 17.7196 11.9166 17.8073 11.4941 17.8095C11.3801 17.8095 11.2672 17.7695 11.1532 17.764C11.0822 17.7555 11.0103 17.7679 10.9459 17.7995C10.5383 18.0403 10.1134 18.2488 9.67474 18.4232C9.0241 18.6835 8.40664 19.0235 7.83585 19.4359C7.58184 19.6293 7.35388 19.8572 7.11398 20.0695C7.08781 20.0911 7.06024 20.1107 7.03148 20.1285L7.00325 20.1162C7.00891 20.0492 7.02091 19.983 7.03908 19.9184C7.24174 19.4056 7.56238 18.9506 7.97372 18.5921C8.36943 18.223 8.81286 17.9114 9.29154 17.6661C9.53145 17.5461 9.78112 17.4438 10.0319 17.3449C10.1231 17.3093 10.1274 17.2704 10.0818 17.1959C9.98674 17.0565 9.90253 16.9097 9.82997 16.7568C9.77773 16.6173 9.74732 16.4702 9.73987 16.321C9.72306 16.0818 9.74062 15.8413 9.79197 15.6073C9.84625 15.3683 9.86796 15.1215 9.90053 14.8781C9.90589 14.8536 9.91278 14.8294 9.92115 14.8058H9.95154C9.95907 14.8425 9.96415 14.8796 9.96674 14.917C9.96674 15.186 9.96674 15.4539 9.96674 15.7229C9.9653 16.0381 10.0081 16.3518 10.0937 16.6545C10.1282 16.7832 10.1912 16.902 10.2778 17.0017C10.3644 17.1014 10.4723 17.1792 10.5931 17.2292C11.064 17.4462 11.5849 17.5233 12.0965 17.4516C12.4428 17.4033 12.781 17.3068 13.1017 17.1648C13.3188 17.0647 13.536 16.9713 13.7531 16.8724C13.7977 16.8481 13.8483 16.8377 13.8986 16.8424C13.9489 16.8472 13.9968 16.8668 14.0364 16.8991C14.0961 16.9491 14.1674 16.9827 14.2434 16.9965C14.3195 17.0103 14.3977 17.004 14.4706 16.978C14.5416 16.9672 14.6142 16.9784 14.679 17.0102C14.7398 17.0314 14.7876 17.0803 14.8527 17.107C15.0307 17.1859 15.1469 17.107 15.1447 16.9124V16.8613C15.2685 16.8702 15.2609 16.7924 15.2467 16.709C15.2413 16.6845 15.2381 16.659 15.2305 16.6356C15.2207 16.6178 15.2155 16.5978 15.2154 16.5775C15.2152 16.5571 15.22 16.537 15.2294 16.519C15.2388 16.5011 15.2525 16.4858 15.2692 16.4747C15.2859 16.4636 15.3051 16.457 15.3249 16.4555C15.4215 16.4311 15.4107 16.3688 15.3531 16.3166C15.2999 16.2653 15.2386 16.2236 15.1718 16.1932C14.7602 16.0158 14.3153 15.9342 13.8692 15.9542C13.5066 15.9697 13.143 15.9675 12.7837 15.9797C12.5818 15.9864 12.3799 16.0064 12.1769 16.0186C12.1353 16.0205 12.0937 16.0144 12.0542 16.0009C11.9457 15.9642 11.9348 15.9219 11.9695 15.8085C12.0112 15.6886 12.0361 15.5632 12.0434 15.4361C12.0518 15.2136 12.0449 14.9907 12.0227 14.7691C12.0208 14.6727 11.9976 14.5779 11.955 14.4918C11.9123 14.4058 11.8512 14.3307 11.7763 14.2722C11.542 14.1076 11.3442 13.8943 11.1956 13.6463C11.0296 13.3422 10.9634 12.9915 11.0067 12.6458C11.0088 12.6084 11.0139 12.5713 11.0219 12.5347C11.0292 12.5171 11.0325 12.4981 11.0318 12.4791C11.031 12.46 11.026 12.4414 11.0173 12.4246C11.0085 12.4077 10.9962 12.3931 10.9812 12.3818C10.9662 12.3704 10.949 12.3627 10.9307 12.359C10.6767 12.2923 10.5942 12.0811 10.5692 11.8599C10.5467 11.6377 10.5525 11.4135 10.5866 11.1929C10.6201 11.0669 10.6773 10.9487 10.7548 10.845C10.8091 10.756 10.897 10.7571 10.9882 10.7883C11.1033 10.8283 11.1315 10.8127 11.1217 10.6871C11.1109 10.3723 11.1475 10.0577 11.2303 9.75441C11.2579 9.64808 11.2942 9.54432 11.3388 9.44426C11.3968 9.32529 11.418 9.1911 11.3998 9.05948C11.3816 8.92786 11.3247 8.80501 11.2368 8.70722C11.0197 8.44932 10.7353 8.30147 10.4541 8.14139C10.1437 7.96574 9.82128 7.80789 9.56401 7.54554C9.23835 7.21204 9.18299 6.83185 9.33605 6.40274C9.36536 6.32271 9.39358 6.24267 9.42506 6.16374C9.44298 6.12539 9.46328 6.08825 9.48585 6.05257C9.50647 6.08942 9.52182 6.1291 9.53145 6.17041C9.54526 6.36464 9.60369 6.55277 9.70197 6.71949C9.80025 6.88621 9.93561 7.02679 10.097 7.12977C10.4346 7.36767 10.7961 7.57444 11.1456 7.79677C11.4485 7.98909 11.7524 8.1803 11.9142 8.53047C11.9413 8.5905 11.9771 8.61051 12.0455 8.56382C12.3839 8.32149 12.7713 8.16038 13.1788 8.09247C13.4328 8.04699 13.6912 8.03318 13.9485 8.05134C14.2928 8.07891 14.6302 8.16611 14.9461 8.30925C15.2837 8.47298 15.5857 8.70475 15.834 8.9907C16.0501 9.22464 16.2154 9.50271 16.3192 9.80666C16.4094 10.0892 16.4394 10.3883 16.4072 10.6838C16.3518 11.2896 16.062 11.7954 15.7624 12.3046C15.7509 12.3225 15.7378 12.3392 15.7233 12.3546C15.7167 12.3614 15.7087 12.3666 15.6998 12.3697C15.691 12.3728 15.6815 12.3737 15.6723 12.3724C15.7141 12.27 15.7504 12.1654 15.7808 12.0589C15.8362 11.8132 15.8894 11.5653 15.9285 11.3163C15.9735 10.9925 15.9587 10.6629 15.885 10.3447ZM14.9233 12.956C14.8784 13.0239 14.8175 13.0792 14.7463 13.1167C14.675 13.1541 14.5957 13.1726 14.5157 13.1704C14.4356 13.1682 14.3574 13.1454 14.2882 13.104C14.2191 13.0626 14.1612 13.0041 14.12 12.9338C14.3781 13.0311 14.6603 13.0389 14.9233 12.956ZM13.4209 14.0621C13.3986 14.1099 13.3611 14.1486 13.3146 14.1718C13.2681 14.195 13.2152 14.2014 13.1647 14.1899C13.0871 14.1817 13.0134 14.1511 12.9521 14.1018C12.8908 14.0524 12.8445 13.9862 12.8184 13.9109C13.0106 13.9887 13.1962 14.0966 13.4209 14.0621ZM12.7403 12.7114C12.5677 12.7348 12.3202 12.5358 12.2268 12.3513C12.3678 12.4135 12.5129 12.4655 12.661 12.5069C12.8222 12.5289 12.9847 12.5393 13.1473 12.538C13.038 12.646 12.8922 12.7066 12.7403 12.707V12.7114ZM10.3261 11.7699C10.2023 12.0211 9.40987 12.0389 9.16345 11.7976C9.54938 11.8639 9.94418 11.8529 10.3261 11.7654V11.7699ZM9.80174 9.81333C9.80414 9.80354 9.80704 9.7939 9.81043 9.78443C9.86971 9.78053 9.92917 9.78053 9.98845 9.78443C10.2056 9.81222 10.4227 9.80555 10.5822 9.63213C10.6821 9.52096 10.7993 9.58655 10.9079 9.58655C10.96 9.59218 11.0116 9.60222 11.062 9.61657C11.0223 9.65482 10.9782 9.68804 10.9307 9.7155C10.7548 9.78887 10.5757 9.85891 10.3966 9.92227C10.2283 9.97721 10.0457 9.96162 9.88858 9.87892C9.85692 9.85934 9.82775 9.83582 9.80174 9.80888V9.81333ZM10.2273 12.1078C10.1985 12.1657 10.1569 12.216 10.1058 12.2546C10.0548 12.2932 9.99563 12.3191 9.93309 12.3301C9.85634 12.3483 9.77616 12.3442 9.70156 12.3183C9.62696 12.2924 9.5609 12.2457 9.51082 12.1834C9.75506 12.1534 9.99496 12.1289 10.2273 12.1034V12.1078ZM18.2732 14.8403C18.2178 15.0904 18.1755 15.3439 18.1082 15.5895C17.9626 16.1153 17.7413 16.6159 17.4514 17.0747C17.0499 17.722 16.5346 18.2874 15.9317 18.7422C15.5451 19.0419 15.131 19.3025 14.6953 19.5204C14.2608 19.7383 13.8155 19.9327 13.3612 20.1029C12.8445 20.293 12.3147 20.4486 11.7861 20.6042C11.4528 20.7021 11.1109 20.7766 10.7711 20.851C10.3228 20.95 9.87013 21.0345 9.42181 21.1334C9.08529 21.209 8.75312 21.3035 8.41661 21.378C7.92052 21.4891 7.42118 21.5803 6.92618 21.6948C6.59488 21.7652 6.25714 21.7987 5.91881 21.7948C5.60727 21.7948 5.30332 21.7393 5.06668 21.5103C4.98282 21.4251 4.91736 21.3228 4.87454 21.2101C4.77649 20.9314 4.75766 20.63 4.82026 20.3408H4.855C4.88865 20.452 4.92664 20.5631 4.95595 20.6743C5.00217 20.8993 5.12463 21.1002 5.30165 21.2416C5.47866 21.383 5.69882 21.4558 5.92316 21.4469C6.225 21.4447 6.52437 21.391 6.80895 21.2879C7.3148 21.1145 7.8174 20.9311 8.32217 20.7532C8.77592 20.592 9.22858 20.4197 9.68668 20.273C9.96457 20.1818 10.2522 20.1207 10.5345 20.0417C10.9513 19.9306 11.3703 19.8116 11.7828 19.6838C12.1497 19.5726 12.5166 19.4515 12.8684 19.3092C13.2711 19.148 13.6662 18.9679 14.0624 18.78C14.5585 18.5395 15.0216 18.2334 15.44 17.8696C15.6877 17.6442 15.9212 17.4028 16.139 17.147C16.3854 16.8627 16.5851 16.5395 16.7307 16.1898C16.8572 15.8851 16.9659 15.5729 17.0563 15.2549C17.1228 15.008 17.1758 14.7575 17.2148 14.5046C17.3234 13.9198 17.1725 13.4196 16.7274 13.026C16.5722 12.8882 16.4072 12.7615 16.2476 12.6281C16.196 12.5868 16.1525 12.5359 16.1195 12.478L16.2661 12.5002C16.6891 12.5451 17.1026 12.6576 17.4916 12.8337C17.6825 12.9183 17.8517 13.0467 17.9863 13.209C18.1209 13.3713 18.2172 13.5632 18.2678 13.7697C18.3531 14.121 18.355 14.4881 18.2732 14.8403ZM19.1959 14.0176C19.194 14.3499 19.1547 14.6807 19.0787 15.0037C19.0171 15.3702 18.9106 15.7273 18.7617 16.0664C18.7541 16.0398 18.7443 16.0253 18.7465 16.0142C18.8843 15.5006 18.855 14.9815 18.7812 14.4579C18.7356 14.151 18.6879 13.8431 18.613 13.5441C18.5201 13.1632 18.4085 12.7873 18.2786 12.418C18.0952 11.901 17.9009 11.3886 17.6827 10.8861C17.4022 10.2348 17.0757 9.60543 16.7057 9.00293C16.4072 8.52046 16.1119 8.03356 15.7852 7.56999C15.4862 7.14748 15.1655 6.74152 14.8245 6.35383C14.5294 6.02427 14.2171 5.71142 13.8887 5.4167C13.4794 5.02948 12.9819 4.75319 12.4417 4.61297C11.9861 4.48232 11.5078 4.45688 11.0414 4.53849C10.7504 4.57813 10.4818 4.71997 10.2815 4.9398C10.2663 4.95647 10.2457 4.96981 10.2284 4.98649L10.2056 4.96759C10.233 4.81131 10.2954 4.66367 10.3879 4.53626C10.4737 4.41064 10.5681 4.28947 10.6723 4.1494C9.55424 4.01378 8.65217 4.36173 7.93138 5.21771C7.94027 5.06186 7.99474 4.91235 8.0877 4.78861C8.29817 4.46935 8.59296 4.21797 8.93766 4.0638C9.25655 3.8937 9.60678 3.7941 9.96566 3.77144C10.0395 3.77144 10.1122 3.71697 10.1828 3.71474C10.4528 3.68863 10.7247 3.68863 10.9947 3.71474C11.2229 3.75992 11.454 3.78705 11.6862 3.79589C11.8436 3.79589 11.9999 3.78478 12.1562 3.777C12.4407 3.76032 12.7099 3.85037 12.9758 3.92596C13.487 4.08456 13.9704 4.32547 14.4076 4.63965C14.8511 4.94356 15.2657 5.28931 15.6462 5.67238C16.3252 6.35925 16.9261 7.12264 17.4373 7.94796C17.7993 8.50969 18.1086 9.10523 18.3611 9.72662C18.5714 10.2432 18.7526 10.7718 18.9039 11.3096C19.034 11.8019 19.1276 12.3036 19.1839 12.8104C19.223 13.2072 19.185 13.6174 19.1959 14.0132V14.0176ZM31.8238 14.9837C31.8291 15.5635 31.7873 16.1429 31.699 16.7157C30.9011 19.8572 29.6538 21.4413 27.9832 21.4413C27.7736 21.4348 27.5651 21.4088 27.3601 21.3635C25.6385 20.5209 24.7657 18.7845 24.7657 16.1287C24.774 15.5554 24.8241 14.9835 24.9155 14.4178C25.6895 11.1718 26.9607 9.53986 28.6812 9.53986L29.0308 9.61657C30.9011 10.2291 31.8238 11.9922 31.8238 14.9281V14.9837ZM58.0642 5.93807C58.0121 6.73736 57.9709 7.53775 57.9014 8.33259C57.7853 9.66659 57.6507 11.0006 57.5247 12.3346C57.4867 12.7214 57.4488 13.1127 57.4086 13.5096C57.3937 13.494 57.3799 13.4773 57.3673 13.4596C56.9462 12.8282 56.3459 12.7926 55.9149 13.414C55.6305 13.8231 55.3721 14.2833 55.1105 14.7202C55.0335 14.8469 54.9542 14.9703 54.8739 15.0926C54.8439 15.1323 54.8109 15.1695 54.7751 15.2038L54.7349 15.1793C54.7458 14.957 54.7458 14.7269 54.7675 14.5057C54.8858 13.2962 55.002 12.0856 55.1311 10.8783C55.2582 9.70105 55.4004 8.52825 55.5361 7.35322C55.5361 7.33988 55.5437 7.32654 55.5513 7.29986C55.573 7.32431 55.5925 7.34432 55.611 7.36656C55.8726 7.67449 56.1537 7.74119 56.4674 7.57222C56.6717 7.45894 56.8469 7.29781 56.9787 7.10198C57.2143 6.76848 57.4455 6.41831 57.6832 6.08259C57.7918 5.92806 57.9144 5.79022 58.0306 5.64459L58.0653 5.67127C58.0653 5.75798 58.0708 5.84914 58.0642 5.93807ZM84.7378 14.7291C84.7427 15.3104 84.701 15.8912 84.613 16.4655C83.8151 19.606 82.5678 21.1901 80.8972 21.1901C80.6877 21.1841 80.4791 21.1584 80.2741 21.1134C78.5525 20.2708 77.6797 18.5343 77.6797 15.8786C77.6887 15.3033 77.7402 14.7295 77.8338 14.1622C78.6035 10.9183 79.8746 9.28195 81.5952 9.28195L81.9447 9.35755C83.8151 9.97119 84.7378 11.7332 84.7378 14.6702V14.7291Z" fill="#32AA90"/>
</g>
<defs>
<clipPath id="clip0_3060_305">
<rect width="99.0037" height="38.0012" fill="white" transform="translate(0 0.49939)"/>
</clipPath>
</defs>
</svg>
